<svg width="131" height="163" viewBox="0 0 131 163" fill="none" xmlns="http://www.w3.org/2000/svg">
<path d="M70.1664 160.217C85.1239 147.302 129.667 105.485 129.667 65.3333C129.667 48.2711 122.889 31.9076 110.824 19.8428C98.759 7.77796 82.3956 1 65.3333 1C48.2711 1 31.9076 7.77796 19.8428 19.8428C7.77796 31.9076 1 48.2711 1 65.3333C1 105.485 45.5428 147.302 60.5003 160.217C61.8937 161.265 63.5899 161.831 65.3333 161.831C67.0768 161.831 68.7729 161.265 70.1664 160.217Z" fill="MARKER_COLOR" stroke="MARKER_COLOR" stroke-width="2" stroke-linecap="round" stroke-linejoin="round"/>
<path d="M65.5 116C92.8381 116 115 93.8381 115 66.5C115 39.1619 92.8381 17 65.5 17C38.1619 17 16 39.1619 16 66.5C16 93.8381 38.1619 116 65.5 116Z" fill="white" stroke="white" stroke-width="2" stroke-linecap="round" stroke-linejoin="round"/>
<path d="M65.5 76.85H37.9C36.07 76.85 34.315 76.123 33.021 74.829C31.727 73.535 31 71.78 31 69.95C31 68.12 31.727 66.365 33.021 65.071C34.315 63.777 36.07 63.05 37.9 63.05H93.1C94.93 63.05 96.685 63.777 97.979 65.071C99.273 66.365 100 68.12 100 69.95C100 71.78 99.273 73.535 97.979 74.829C96.685 76.123 94.93 76.85 93.1 76.85H78.4375" stroke="black" stroke-width="6" stroke-linecap="round" stroke-linejoin="round"/>
<path d="M41.35 63.05C39.52 63.05 37.765 62.323 36.471 61.029C35.177 59.735 34.45 57.98 34.45 56.15C34.45 49.745 37.7213 43.6024 43.5443 39.0734C49.3673 34.5444 57.265 32 65.5 32C73.735 32 81.6327 34.5444 87.4557 39.0734C93.2787 43.6024 96.55 49.745 96.55 56.15C96.55 57.98 95.823 59.735 94.529 61.029C93.235 62.323 91.48 63.05 89.65 63.05" stroke="black" stroke-width="6" stroke-linecap="round" stroke-linejoin="round"/>
<path d="M41.35 76.85C39.52 76.85 37.765 77.577 36.471 78.871C35.177 80.165 34.45 81.92 34.45 83.75C34.45 86.495 35.5405 89.1276 37.4815 91.0686C39.4225 93.0096 42.055 94.1 44.8 94.1H86.2C88.945 94.1 91.5776 93.0096 93.5186 91.0686C95.4596 89.1276 96.55 86.495 96.55 83.75C96.55 81.92 95.823 80.165 94.529 78.871C93.235 77.577 91.48 76.85 89.65 76.85" stroke="black" stroke-width="6" stroke-linecap="round" stroke-linejoin="round"/>
<path d="M47.1115 63.05L68.26 78.92C69.724 80.018 71.5642 80.4895 73.3758 80.2307C74.2728 80.1025 75.1358 79.7989 75.9155 79.3373C76.6952 78.8756 77.3763 78.2649 77.92 77.54L88.7875 63.05" stroke="black" stroke-width="6" stroke-linecap="round" stroke-linejoin="round"/>
</svg>
