<svg width="131" height="163" viewBox="0 0 131 163" fill="none" xmlns="http://www.w3.org/2000/svg">
<path d="M70.1664 160.217C85.1239 147.302 129.667 105.485 129.667 65.3333C129.667 48.2711 122.889 31.9076 110.824 19.8428C98.759 7.77796 82.3956 1 65.3333 1C48.2711 1 31.9076 7.77796 19.8428 19.8428C7.77796 31.9076 1 48.2711 1 65.3333C1 105.485 45.5428 147.302 60.5003 160.217C61.8937 161.265 63.5899 161.831 65.3333 161.831C67.0768 161.831 68.7729 161.265 70.1664 160.217Z" fill="MARKER_COLOR" stroke="MARKER_COLOR" stroke-width="2" stroke-linecap="round" stroke-linejoin="round"/>
<path d="M65.5 116C92.8381 116 115 93.8381 115 66.5C115 39.1619 92.8381 17 65.5 17C38.1619 17 16 39.1619 16 66.5C16 93.8381 38.1619 116 65.5 116Z" fill="white" stroke="white" stroke-width="2" stroke-linecap="round" stroke-linejoin="round"/>
<path d="M90 93.5714V86.2857C90 82.4211 88.4648 78.7148 85.7321 75.9822C82.9995 73.2495 79.2932 71.7143 75.4286 71.7143H53.5714C49.7068 71.7143 46.0005 73.2495 43.2679 75.9822C40.5352 78.7148 39 82.4211 39 86.2857V93.5714" stroke="black" stroke-width="6" stroke-linecap="round" stroke-linejoin="round"/>
<path d="M64.5 57.1429C72.5476 57.1429 79.0714 50.619 79.0714 42.5714C79.0714 34.5239 72.5476 28 64.5 28C56.4524 28 49.9286 34.5239 49.9286 42.5714C49.9286 50.619 56.4524 57.1429 64.5 57.1429Z" stroke="black" stroke-width="6" stroke-linecap="round" stroke-linejoin="round"/>
</svg>
