<svg width="131" height="163" viewBox="0 0 131 163" fill="none" xmlns="http://www.w3.org/2000/svg">
<path d="M70.1664 160.217C85.1239 147.302 129.667 105.485 129.667 65.3333C129.667 48.2711 122.889 31.9076 110.824 19.8428C98.759 7.77796 82.3956 1 65.3333 1C48.2711 1 31.9076 7.77796 19.8428 19.8428C7.77796 31.9076 1 48.2711 1 65.3333C1 105.485 45.5428 147.302 60.5003 160.217C61.8937 161.265 63.5899 161.831 65.3333 161.831C67.0768 161.831 68.7729 161.265 70.1664 160.217Z" fill="MARKER_COLOR" stroke="MARKER_COLOR" stroke-width="2" stroke-linecap="round" stroke-linejoin="round"/>
<path d="M65.5 116C92.8381 116 115 93.8381 115 66.5C115 39.1619 92.8381 17 65.5 17C38.1619 17 16 39.1619 16 66.5C16 93.8381 38.1619 116 65.5 116Z" fill="white" stroke="white" stroke-width="2" stroke-linecap="round" stroke-linejoin="round"/>
<path d="M82.7809 68.4403C83.9729 69.6323 85.5896 70.3019 87.2753 70.3019C88.9611 70.3019 90.5778 69.6323 91.7698 68.4403C92.9618 67.2483 93.6315 65.6315 93.6315 63.9458C93.6315 62.26 92.9618 60.6433 91.7698 59.4513L86.1521 53.8368C87.3441 55.0284 88.9606 55.6977 90.6461 55.6974C91.4807 55.6972 92.307 55.5327 93.078 55.2132C93.8489 54.8937 94.5494 54.4255 95.1394 53.8352C95.7295 53.245 96.1974 52.5444 96.5167 51.7733C96.8359 51.0022 97.0001 50.1758 97 49.3412C96.9998 48.5067 96.8353 47.6803 96.5158 46.9094C96.1963 46.1384 95.7281 45.4379 95.1379 44.8479L86.1521 35.8621C84.9605 34.6701 83.3442 34.0003 81.6588 34C79.9733 33.9997 78.3568 34.669 77.1648 35.8605C75.9727 37.0521 75.3029 38.6684 75.3026 40.3539C75.3023 42.0393 75.9716 43.6559 77.1632 44.8479L71.5487 39.2302C70.9584 38.64 70.2577 38.1718 69.4866 37.8524C68.7154 37.5329 67.8889 37.3685 67.0542 37.3685C66.2195 37.3685 65.393 37.5329 64.6218 37.8524C63.8506 38.1718 63.1499 38.64 62.5597 39.2302C61.9695 39.8204 61.5013 40.5211 61.1819 41.2923C60.8625 42.0634 60.6981 42.89 60.6981 43.7247C60.6981 44.5594 60.8625 45.3859 61.1819 46.1571C61.5013 46.9282 61.9695 47.6289 62.5597 48.2191L82.7809 68.4403Z" stroke="black" stroke-width="6" stroke-linecap="round" stroke-linejoin="round"/>
<path d="M34.8145 96.1855L39.2628 91.7371" stroke="black" stroke-width="6" stroke-linecap="round" stroke-linejoin="round"/>
<path d="M90.7371 40.2629L95.1855 35.8145" stroke="black" stroke-width="6" stroke-linecap="round" stroke-linejoin="round"/>
<path d="M43.8479 96.1379C45.0395 97.3299 46.6558 97.9997 48.3412 98C49.1758 98.0001 50.0022 97.8359 50.7733 97.5167C51.5444 97.1974 52.245 96.7295 52.8352 96.1395C53.4255 95.5494 53.8937 94.849 54.2132 94.078C54.5327 93.307 54.6972 92.4807 54.6974 91.6461C54.6975 90.8116 54.5333 89.9852 54.2141 89.2141C53.8948 88.443 53.4268 87.7423 52.8368 87.1521L58.4513 92.7698C59.6433 93.9618 61.26 94.6315 62.9458 94.6315C64.6315 94.6315 66.2483 93.9618 67.4403 92.7698C68.6323 91.5778 69.3019 89.9611 69.3019 88.2753C69.3019 86.5896 68.6323 84.9729 67.4403 83.7809L47.2191 63.5597C46.6289 62.9695 45.9282 62.5013 45.1571 62.1819C44.3859 61.8625 43.5594 61.6981 42.7247 61.6981C41.89 61.6981 41.0634 61.8625 40.2923 62.1819C39.5211 62.5013 38.8204 62.9695 38.2302 63.5597C37.64 64.15 37.1718 64.8507 36.8524 65.6218C36.5329 66.393 36.3685 67.2195 36.3685 68.0542C36.3685 68.8889 36.5329 69.7154 36.8524 70.4866C37.1718 71.2578 37.64 71.9584 38.2302 72.5487L43.8479 78.1632C42.6559 76.9716 41.0393 76.3023 39.3539 76.3026C37.6684 76.3029 36.0521 76.9728 34.8605 78.1648C33.669 79.3568 32.9997 80.9733 33 82.6588C33.0003 84.3442 33.6701 85.9605 34.8621 87.1521L43.8479 96.1379Z" stroke="black" stroke-width="6" stroke-linecap="round" stroke-linejoin="round"/>
<path d="M57.3742 73.6258L72.6258 58.3742" stroke="black" stroke-width="6" stroke-linecap="round" stroke-linejoin="round"/>
</svg>
