<svg width="131" height="163" viewBox="0 0 131 163" fill="none" xmlns="http://www.w3.org/2000/svg">
<path d="M70.1664 160.217C85.1239 147.302 129.667 105.485 129.667 65.3333C129.667 48.2711 122.889 31.9076 110.824 19.8428C98.759 7.77796 82.3956 1 65.3333 1C48.2711 1 31.9076 7.77796 19.8428 19.8428C7.77796 31.9076 1 48.2711 1 65.3333C1 105.485 45.5428 147.302 60.5003 160.217C61.8937 161.265 63.5899 161.831 65.3333 161.831C67.0768 161.831 68.7729 161.265 70.1664 160.217Z" fill="MARKER_COLOR" stroke="MARKER_COLOR" stroke-width="2" stroke-linecap="round" stroke-linejoin="round"/>
<path d="M65.5 116C92.8381 116 115 93.8381 115 66.5C115 39.1619 92.8381 17 65.5 17C38.1619 17 16 39.1619 16 66.5C16 93.8381 38.1619 116 65.5 116Z" fill="white" stroke="white" stroke-width="2" stroke-linecap="round" stroke-linejoin="round"/>
<path d="M75.8432 96.274V79.3598C75.8432 78.4626 75.4798 77.6021 74.8329 76.9677C74.1861 76.3333 73.3088 75.9769 72.394 75.9769H58.5971C57.6823 75.9769 56.8049 76.3333 56.1581 76.9677C55.5112 77.6021 55.1478 78.4626 55.1478 79.3598V96.274" stroke="black" stroke-width="6" stroke-linecap="round" stroke-linejoin="round"/>
<path d="M85.4113 60.1114C84.6923 59.4363 83.7353 59.0595 82.7399 59.0595C81.7445 59.0595 80.7875 59.4363 80.0685 60.1114C78.4646 61.6117 76.3333 62.4488 74.1168 62.4488C71.9004 62.4488 69.769 61.6117 68.1652 60.1114C67.4463 59.4373 66.4901 59.0611 65.4955 59.0611C64.5009 59.0611 63.5446 59.4373 62.8258 60.1114C61.2217 61.6127 59.0897 62.4504 56.8724 62.4504C54.6551 62.4504 52.5231 61.6127 50.919 60.1114C50.2 59.4363 49.243 59.0595 48.2476 59.0595C47.2522 59.0595 46.2952 59.4363 45.5762 60.1114C44.0269 61.5613 41.983 62.394 39.8423 62.4474C37.7015 62.5008 35.6171 61.7711 33.9947 60.4002C32.3724 59.0294 31.3281 57.1155 31.0652 55.0312C30.8024 52.9469 31.3397 50.8411 32.5726 49.1239L42.5374 34.9701C43.1697 34.0551 44.0209 33.306 45.0166 32.7882C46.0124 32.2704 47.1223 31.9998 48.2493 32H82.7416C83.8654 31.9996 84.9722 32.2684 85.9659 32.7831C86.9595 33.2978 87.81 34.0427 88.4432 34.9532L98.4287 49.1341C99.6619 50.8527 100.199 52.96 99.934 55.0454C99.6695 57.1308 98.6228 59.0449 96.9979 60.4148C95.3729 61.7847 93.2861 62.5121 91.1442 62.4554C89.0022 62.3987 86.9585 61.5619 85.4113 60.108" stroke="black" stroke-width="6" stroke-linecap="round" stroke-linejoin="round"/>
<path d="M37.9017 62.2764V89.5083C37.9017 91.3027 38.6285 93.0235 39.9222 94.2923C41.2159 95.5612 42.9705 96.274 44.8001 96.274H86.1909C88.0204 96.274 89.7751 95.5612 91.0688 94.2923C92.3625 93.0235 93.0893 91.3027 93.0893 89.5083V62.2764" stroke="black" stroke-width="6" stroke-linecap="round" stroke-linejoin="round"/>
</svg>
