<svg width="131" height="163" viewBox="0 0 131 163" fill="none" xmlns="http://www.w3.org/2000/svg">
<path d="M70.1664 160.217C85.1239 147.302 129.667 105.485 129.667 65.3333C129.667 48.2711 122.889 31.9076 110.824 19.8428C98.759 7.77796 82.3956 1 65.3333 1C48.2711 1 31.9076 7.77796 19.8428 19.8428C7.77796 31.9076 1 48.2711 1 65.3333C1 105.485 45.5428 147.302 60.5003 160.217C61.8937 161.265 63.5899 161.831 65.3333 161.831C67.0768 161.831 68.7729 161.265 70.1664 160.217Z" fill="MARKER_COLOR" stroke="MARKER_COLOR" stroke-width="2" stroke-linecap="round" stroke-linejoin="round"/>
<path d="M65.5 116C92.8381 116 115 93.8381 115 66.5C115 39.1619 92.8381 17 65.5 17C38.1619 17 16 39.1619 16 66.5C16 93.8381 38.1619 116 65.5 116Z" fill="white" stroke="white" stroke-width="2" stroke-linecap="round" stroke-linejoin="round"/>
<path d="M58.6 63.05H72.4" stroke="black" stroke-width="6" stroke-linecap="round" stroke-linejoin="round"/>
<path d="M58.6 49.25H72.4" stroke="black" stroke-width="6" stroke-linecap="round" stroke-linejoin="round"/>
<path d="M72.4 94.1V83.75C72.4 81.92 71.673 80.1649 70.379 78.8709C69.085 77.5769 67.33 76.85 65.5 76.85C63.67 76.85 61.9149 77.5769 60.6209 78.8709C59.3269 80.1649 58.6 81.92 58.6 83.75V94.1" stroke="black" stroke-width="6" stroke-linecap="round" stroke-linejoin="round"/>
<path d="M44.8 56.15H37.9C36.07 56.15 34.315 56.8769 33.021 58.1709C31.727 59.4649 31 61.22 31 63.05V87.2C31 89.03 31.727 90.785 33.021 92.079C34.315 93.373 36.07 94.1 37.9 94.1H93.1C94.93 94.1 96.685 93.373 97.979 92.079C99.273 90.785 100 89.03 100 87.2V52.7C100 50.87 99.273 49.1149 97.979 47.8209C96.685 46.5269 94.93 45.8 93.1 45.8H86.2" stroke="black" stroke-width="6" stroke-linecap="round" stroke-linejoin="round"/>
<path d="M44.8 94.1V38.9C44.8 37.07 45.527 35.315 46.821 34.021C48.115 32.727 49.8701 32 51.7 32H79.3C81.13 32 82.8851 32.727 84.1791 34.021C85.4731 35.315 86.2 37.07 86.2 38.9V94.1" stroke="black" stroke-width="6" stroke-linecap="round" stroke-linejoin="round"/>
</svg>
